<?xml version="1.0" standalone="no"?>
<!DOCTYPE svg PUBLIC "-//W3C//DTD SVG 20010904//EN"
 "http://www.w3.org/TR/2001/REC-SVG-20010904/DTD/svg10.dtd">
<svg version="1.0" xmlns="http://www.w3.org/2000/svg"
 width="500.000000pt" height="500.000000pt" viewBox="0 0 500.000000 500.000000"
 preserveAspectRatio="xMidYMid meet">

<g transform="translate(0.000000,500.000000) scale(0.100000,-0.100000)"
fill="#000000" stroke="none">
<path d="M2340 3760 c-290 -38 -562 -171 -766 -374 -198 -197 -343 -472 -373
-705 -21 -163 -9 -381 21 -381 5 0 21 -9 35 -20 14 -11 22 -20 17 -20 -4 0 15
-12 44 -26 29 -14 50 -29 47 -34 -2 -4 11 -23 29 -42 26 -26 50 -39 100 -52
36 -9 69 -15 73 -14 5 1 55 -2 113 -6 77 -5 113 -4 135 5 22 9 140 13 460 14
422 2 431 2 490 25 33 12 64 26 69 31 17 15 102 10 116 -6 7 -8 33 -24 59 -36
93 -41 150 -50 361 -54 214 -5 244 -8 287 -30 30 -16 60 -5 69 23 3 9 10 26
14 37 12 26 38 113 57 190 9 39 15 109 15 200 0 331 -123 631 -361 878 -189
197 -417 324 -676 378 -103 22 -336 32 -435 19z m795 -780 c3 -5 -11 -14 -32
-20 -47 -13 -72 -34 -101 -83 -21 -36 -22 -48 -22 -270 0 -128 -3 -269 -7
-315 l-6 -83 -40 38 c-53 51 -135 163 -182 248 -21 39 -65 113 -99 165 -33 52
-60 96 -61 98 -1 1 -15 -5 -32 -13 -59 -29 -88 15 -36 53 27 20 27 21 10 40
-27 29 -85 41 -122 26 -50 -21 -67 -18 -63 13 9 81 183 83 280 3 42 -35 135
-168 212 -305 30 -55 66 -113 78 -128 l23 -28 -3 221 -2 222 32 45 c20 27 49
53 73 64 44 20 90 25 100 9z m-1419 -43 c103 -52 144 -141 109 -233 -12 -31
-30 -55 -56 -72 -38 -27 -49 -42 -29 -42 6 0 28 -11 50 -25 123 -78 98 -282
-42 -340 -56 -23 -349 -35 -373 -15 -22 18 -18 30 10 30 52 0 57 25 58 303 0
287 -1 281 79 317 52 24 76 26 59 7 -7 -9 -11 -113 -12 -318 l-2 -304 39 -3
c48 -3 96 24 124 70 28 47 28 147 -1 198 -21 37 -72 70 -109 70 -36 0 -21 25
24 39 47 13 58 28 76 100 15 56 6 102 -27 141 -39 47 -79 63 -151 62 -75 -1
-126 -26 -173 -84 -59 -74 -58 -131 2 -194 38 -39 36 -74 -4 -88 -36 -13 -74
14 -105 75 -19 37 -22 53 -17 99 12 105 49 157 145 205 56 29 89 34 185 31 73
-2 100 -8 141 -29z m1641 3 c5 -8 8 -153 9 -322 1 -348 4 -368 66 -360 3 1 9
-5 11 -13 16 -40 -96 -56 -145 -20 -15 11 -31 31 -37 45 -5 14 -12 159 -16
323 -6 293 -6 298 15 325 33 42 82 53 97 22z m-1342 -55 c30 -29 32 -64 5 -93
-27 -29 -65 -28 -95 3 -48 47 -20 111 48 114 10 1 29 -10 42 -24z m1536 -7
c40 -75 -31 -150 -99 -102 -17 11 -22 25 -22 58 0 53 13 66 67 66 33 0 45 -5
54 -22z m-397 -17 c27 -30 18 -81 -19 -103 -30 -17 -32 -17 -63 2 -26 16 -32
26 -32 54 0 59 75 90 114 47z m-544 -381 l0 -208 30 -25 c17 -14 26 -29 20
-32 -5 -3 -51 -6 -102 -7 -51 0 -113 -1 -137 -1 -35 -1 -47 3 -66 25 -20 24
-25 25 -36 12 -35 -42 -108 -56 -159 -29 -54 28 -91 124 -70 180 20 52 109
105 194 113 l48 5 -5 50 c-9 98 -95 118 -163 39 -25 -28 -58 -26 -62 5 -6 38
83 83 163 83 56 0 131 -27 153 -55 16 -20 20 -50 25 -186 4 -101 11 -167 18
-176 7 -8 24 -13 38 -11 l26 3 3 172 2 172 -31 16 c-19 10 -28 20 -22 26 12
12 116 46 126 42 4 -2 7 -98 7 -213z m-580 166 c7 -22 10 -96 8 -201 l-3 -167
33 -28 c36 -30 34 -37 -13 -40 -62 -4 -83 1 -109 26 -26 26 -26 29 -27 173 -2
185 -6 205 -42 209 -15 2 -27 9 -27 18 0 8 1 14 3 14 1 0 20 7 42 15 22 8 59
14 82 15 39 0 42 -2 53 -34z m1130 15 c6 -12 10 -95 10 -201 0 -180 0 -181 25
-204 39 -36 32 -46 -35 -46 -99 0 -110 24 -110 243 0 134 -8 167 -40 167 -32
0 -13 25 33 42 59 23 104 23 117 -1z m390 -7 c6 -14 10 -100 10 -190 0 -172 6
-204 41 -204 30 0 72 46 64 70 -5 16 -2 20 14 20 36 0 27 -50 -16 -92 -67 -63
-105 -72 -161 -38 -53 32 -62 69 -62 240 l0 150 -25 12 c-35 16 -31 24 18 41
68 25 106 22 117 -9z"/>
<path d="M2258 2454 c-56 -30 -76 -119 -37 -168 25 -31 47 -33 83 -5 24 19 26
26 26 105 0 81 -1 84 -22 84 -13 -1 -35 -7 -50 -16z"/>
</g>
</svg>
