<?xml version="1.0" encoding="UTF-8"?>
<svg version="1.1" xmlns="http://www.w3.org/2000/svg" width="500" height="500">
<path d="M0 0 C1.42176695 0.00719598 2.84353511 0.01416095 4.26530457 0.02084351 C11.26016913 0.05381078 18.25389046 0.10504781 25.24791718 0.22068787 C26.93417248 0.24712689 28.62053301 0.26768655 30.30693817 0.28160095 C38.98865428 0.36277316 46.36489025 0.97681673 54.20381927 5.01115417 C55.09069427 5.40302917 55.97756927 5.79490417 56.89131927 6.19865417 C63.58961136 11.44866689 68.32079128 18.81903777 69.52577209 27.2688055 C70.08282712 32.95825847 70.36317899 38.58521196 70.3932724 44.30046082 C70.40571236 45.60234344 70.40571236 45.60234344 70.41840363 46.93052673 C70.43565355 48.79377599 70.45085966 50.65704512 70.46417999 52.52032661 C70.48539172 55.46608965 70.51238997 58.41175105 70.54085541 61.35745239 C70.61030251 68.66103463 70.6702988 75.96468796 70.72988129 83.26835632 C70.78072526 89.46610665 70.83546465 95.66379711 70.89569855 101.86146355 C70.92232159 104.76925782 70.94309289 107.67705771 70.96370697 110.5848999 C70.98029708 112.35206885 70.99716776 114.11923519 71.01436615 115.88639832 C71.01855057 116.69930832 71.02273499 117.51221832 71.0270462 118.34976196 C70.72886589 121.98005144 70.72886589 121.98005144 72.20381927 125.01115417 C72.30471958 127.50872221 72.34353693 129.97803059 72.33663177 132.47599792 C72.3375885 133.22450516 72.33854523 133.97301239 72.33953094 134.74420166 C72.34021274 136.33050114 72.3383585 137.91680339 72.33419037 139.50309753 C72.32884952 141.93488326 72.33413147 144.36648366 72.34053802 146.79826355 C72.3398771 148.33667542 72.33859563 149.87508717 72.33663177 151.41349792 C72.33865601 152.1437468 72.34068024 152.87399567 72.34276581 153.62637329 C72.31877596 158.78124081 72.31877596 158.78124081 71.20381927 161.01115417 C71.0844913 162.58428185 71.02661322 164.16224291 70.99849701 165.73963928 C70.97855682 166.74823879 70.95861664 167.7568383 70.9380722 168.79600143 C70.92135468 169.91742664 70.90463715 171.03885185 70.88741302 172.19425964 C70.86658661 173.38676456 70.84576019 174.57926949 70.82430267 175.80791092 C70.76853081 179.15838875 70.71812158 182.50885074 70.67139053 185.85946131 C70.6410908 188.01963062 70.60921836 190.17977264 70.57714081 192.33991623 C70.17847006 219.64913143 70.12419842 246.9572513 70.14131927 274.26896667 C70.14196129 275.29618804 70.1426033 276.3234094 70.14326477 277.38175869 C70.15419043 293.29990393 70.17820539 309.21802699 70.20381927 325.13615417 C70.22616309 339.09359916 70.24659301 353.05103664 70.25723743 367.00849617 C70.26130748 372.02449085 70.26739075 377.04046269 70.27898407 382.05644608 C70.30772831 394.70849469 70.29282246 407.35935835 70.20381927 420.01115417 C70.19798576 420.93097423 70.19215225 421.85079428 70.18614197 422.79848766 C70.14825718 428.36365698 70.08582601 433.92771703 69.9910183 439.49221587 C69.96404938 441.21887834 69.94334571 442.94565242 69.92954445 444.67247033 C69.84986819 453.7733917 69.56482804 461.77901295 65.20381927 470.01115417 C64.81194427 470.89802917 64.42006927 471.78490417 64.01631927 472.69865417 C58.53010076 479.69831228 51.81126386 483.29257117 43.20381927 485.01115417 C37.46043815 485.4427781 31.73601616 485.4221806 25.9792099 485.39933777 C24.25013651 485.40340894 22.52106573 485.40875387 20.79199982 485.41526794 C16.12051638 485.42888246 11.4492329 485.42366723 6.7777462 485.41413069 C1.87504689 485.40650359 -3.02763598 485.41358814 -7.930336 485.41828918 C-16.16152755 485.42373788 -24.39263819 485.41657842 -32.62381744 485.40226746 C-42.12261169 485.38594267 -51.62121271 485.3912318 -61.12000227 485.40774667 C-69.29440695 485.42138683 -77.46875367 485.42326885 -85.64316607 485.41543067 C-90.51709438 485.41076805 -95.39093204 485.41009033 -100.26485443 485.42004013 C-104.84832178 485.42874441 -109.43154146 485.42262498 -114.01498222 485.40535736 C-115.69107084 485.40141094 -117.36718051 485.40249472 -119.04326057 485.40914536 C-131.62094458 485.45442906 -142.10784575 484.79824869 -151.79618073 476.01115417 C-158.24686111 469.56047379 -160.23946547 461.10427476 -160.33401698 452.24415445 C-160.32557444 451.16183589 -160.3171319 450.07951734 -160.30843353 448.96440125 C-160.31522922 447.78937215 -160.3220249 446.61434306 -160.32902652 445.40370703 C-160.34379499 442.16911406 -160.3409041 438.93511185 -160.33032715 435.70052099 C-160.32329043 432.20228873 -160.3394062 428.70415142 -160.35266876 425.20594788 C-160.3725268 419.15358304 -160.3780279 413.10134417 -160.37373161 407.0489502 C-160.36762696 398.29618311 -160.38453242 389.54357631 -160.40714154 380.79084176 C-160.44330783 366.58531137 -160.46250351 352.37981258 -160.47025299 338.17424011 C-160.47782554 324.38451179 -160.49094165 310.59481245 -160.51322174 296.80509949 C-160.51527779 295.52931545 -160.51527779 295.52931545 -160.51737537 294.22775799 C-160.53249423 284.94774694 -160.54922189 275.66773939 -160.56719685 266.38773346 C-160.56876882 265.57294449 -160.57034079 264.75815553 -160.57196039 263.91867599 C-160.58138593 259.03406033 -160.58138593 259.03406033 -160.590978 254.149445 C-160.60980519 244.6090142 -160.62367749 235.06860461 -160.62877367 225.5281561 C-160.63200709 219.55158754 -160.63825799 213.57502785 -160.64690193 207.59846467 C-160.65170886 204.14708805 -160.6547502 200.69573058 -160.65343285 197.24435043 C-160.65277035 193.51022541 -160.65808315 189.7761557 -160.66487885 186.04203796 C-160.66312847 184.94187363 -160.6613781 183.8417093 -160.65957469 182.70820665 C-160.66408616 181.21710729 -160.66408616 181.21710729 -160.66868877 179.6958847 C-160.66917853 178.83326476 -160.66966828 177.97064481 -160.67017287 177.08188486 C-160.66418836 174.94842157 -160.66418836 174.94842157 -161.79618073 173.01115417 C-161.89296268 171.14855809 -161.92693914 169.28251186 -161.92899323 167.41740417 C-161.93092682 165.74871277 -161.93092682 165.74871277 -161.93289948 164.04631042 C-161.92903229 162.87970886 -161.9251651 161.7131073 -161.92118073 160.51115417 C-161.92504791 159.34455261 -161.9289151 158.17795105 -161.93289948 156.97599792 C-161.93161041 155.86353699 -161.93032135 154.75107605 -161.92899323 153.60490417 C-161.92730133 152.06866394 -161.92730133 152.06866394 -161.92557526 150.50138855 C-161.79618073 148.01115417 -161.79618073 148.01115417 -160.79618073 146.01115417 C-160.629478 142.96941523 -160.629478 142.96941523 -160.79618073 140.01115417 C-161.12618073 139.68115417 -161.45618073 139.35115417 -161.79618073 139.01115417 C-161.89592461 137.1083043 -161.92698702 135.20177164 -161.92899323 133.29631042 C-161.93028229 132.13550964 -161.93157135 130.97470886 -161.93289948 129.7787323 C-161.92709869 127.94471863 -161.92709869 127.94471863 -161.92118073 126.07365417 C-161.92698151 124.24544128 -161.92698151 124.24544128 -161.93289948 122.3802948 C-161.93161041 121.21820496 -161.93032135 120.05611511 -161.92899323 118.85881042 C-161.9278653 117.78639099 -161.92673737 116.71397156 -161.92557526 115.60905457 C-161.79618073 113.01115417 -161.79618073 113.01115417 -160.79618073 111.01115417 C-160.69990452 108.99218554 -160.66636247 106.96991127 -160.67118073 104.94865417 C-160.6686026 103.86455261 -160.66602448 102.78045105 -160.66336823 101.66349792 C-160.49499508 99.0887202 -160.49499508 99.0887202 -161.79618073 98.01115417 C-161.89478204 96.60766682 -161.92697009 95.1993494 -161.92899323 93.79240417 C-161.93028229 92.94291199 -161.93157135 92.0934198 -161.93289948 91.21818542 C-161.92903229 90.32486511 -161.9251651 89.4315448 -161.92118073 88.51115417 C-161.92504791 87.61783386 -161.9289151 86.72451355 -161.93289948 85.80412292 C-161.93161041 84.95463074 -161.93032135 84.10513855 -161.92899323 83.22990417 C-161.9278653 82.44550964 -161.92673737 81.66111511 -161.92557526 80.85295105 C-161.79618073 79.01115417 -161.79618073 79.01115417 -160.79618073 78.01115417 C-160.69418439 76.40700851 -160.66048665 74.79845906 -160.65433502 73.19108582 C-160.64730057 72.16233841 -160.64026611 71.133591 -160.63301849 70.07366943 C-160.62885422 68.95089096 -160.62468994 67.82811249 -160.62039948 66.67131042 C-160.59718253 64.30476526 -160.57306446 61.93822879 -160.54813385 59.57170105 C-160.51314352 55.83262987 -160.48375373 52.0938743 -160.47025299 48.35466003 C-160.45468799 44.75148291 -160.41439923 41.14923842 -160.37039948 37.54631042 C-160.37230789 36.44175003 -160.37421631 35.33718964 -160.37618256 34.19915771 C-160.24912123 26.05415791 -158.81397194 19.05523876 -153.86649323 12.42521667 C-144.80532031 4.09184881 -137.67242346 0.76180766 -125.47196198 0.59709167 C-124.5346524 0.57763489 -123.59734283 0.5581781 -122.63162994 0.53813171 C-119.45740538 0.47657208 -116.28318906 0.43056762 -113.10868073 0.38615417 C-111.43471725 0.35863068 -111.43471725 0.35863068 -109.72693634 0.33055115 C-73.15677921 -0.26661409 -36.57338339 -0.18524176 0 0 Z M-143.67118073 18.19865417 C-150.15153308 26.77559111 -149.22063081 37.05590255 -149.17713165 47.25018311 C-149.18059076 49.01354176 -149.18535702 50.77689825 -149.19131339 52.54025024 C-149.20381811 57.37300234 -149.19765537 62.20557633 -149.18835473 67.03832901 C-149.1815625 72.25515367 -149.19204631 77.47194788 -149.20029449 82.68876648 C-149.21363185 92.90317546 -149.21075414 103.1175183 -149.20205657 113.33192987 C-149.19528083 121.6330448 -149.19436283 129.9341412 -149.19762802 138.2352581 C-149.19808772 139.41680816 -149.19854742 140.59835822 -149.19902105 141.81571282 C-149.19998023 144.21601217 -149.20095287 146.61631151 -149.20193882 149.01661085 C-149.21049263 171.521965 -149.20065852 194.02728248 -149.18453772 216.53263061 C-149.17113282 235.84441919 -149.17346409 255.15615368 -149.18729401 274.46794128 C-149.20334697 296.89443904 -149.20967049 319.32090468 -149.20045722 341.74740738 C-149.19950157 344.13856025 -149.19855845 346.52971313 -149.19762802 348.92086601 C-149.19716519 350.09736051 -149.19670237 351.27385501 -149.19622552 352.48600085 C-149.19363491 360.77792242 -149.19800812 369.06982361 -149.20506668 377.36174202 C-149.21347863 387.46560825 -149.21120784 397.56940456 -149.19522445 407.67326278 C-149.18733795 412.82865892 -149.1842567 417.98393844 -149.19417191 423.13933372 C-149.20311123 427.85867015 -149.19819843 432.57778187 -149.18223925 437.29709791 C-149.17888826 439.00422552 -149.18059267 440.7113721 -149.18786661 442.4184875 C-149.19700107 444.74035889 -149.18762078 447.06146257 -149.17370415 449.38329411 C-149.17321709 450.67250234 -149.17273003 451.96171057 -149.17222822 453.28998572 C-148.61133151 458.8403249 -147.08765755 463.33983123 -143.67118073 467.76115417 C-134.76552012 474.7308016 -125.75730398 474.58679171 -114.92874908 474.5287323 C-113.22613173 474.5341593 -111.52351907 474.5412852 -109.82091522 474.54997253 C-105.21763391 474.56813875 -100.61471298 474.56116655 -96.01142573 474.54845619 C-91.18385427 474.53829533 -86.35631267 474.54773027 -81.52873993 474.55400085 C-73.42439002 474.56126759 -65.32018617 474.55171441 -57.21585846 474.53263855 C-47.85729747 474.51086434 -38.49908501 474.51792908 -29.14053243 474.53994417 C-21.09185465 474.55811717 -13.04328155 474.56064743 -4.99458987 474.5501895 C-0.19334328 474.54396596 4.60773965 474.54308767 9.4089756 474.55633545 C13.92273147 474.56792128 18.43603942 474.5598185 22.94974709 474.53675842 C24.60248319 474.53148621 26.25525724 474.53295956 27.90797806 474.54180908 C37.86161201 474.59017764 45.05253809 474.36112495 53.01631927 467.63615417 C57.33983448 462.44793593 58.57883986 458.2679481 58.58413601 451.5485096 C58.58879593 450.81460587 58.59345585 450.08070215 58.59825698 449.32455891 C58.61021351 446.86388016 58.6008092 444.40375289 58.59149933 441.94306946 C58.59567196 440.16167549 58.60114909 438.38028418 58.60781914 436.59889781 C58.62230176 431.70236609 58.61802021 426.80600229 58.61065233 421.90946126 C58.60592991 416.6291846 58.61842232 411.34894475 58.62866974 406.06867981 C58.64588145 395.72352032 58.6466928 385.37842151 58.64145683 375.03325142 C58.6374182 366.62575199 58.63885505 358.21827051 58.64420509 349.81077194 C58.64495352 348.61493861 58.64570194 347.41910528 58.64647304 346.18703457 C58.64800449 343.75782562 58.64954284 341.32861667 58.65108801 338.89940773 C58.66482171 316.10936424 58.65936931 293.31935507 58.64790279 270.52931236 C58.63797021 249.67404985 58.65091 228.81887606 58.67483699 207.96362723 C58.69921241 186.55643449 58.70883964 165.1492831 58.70218426 143.74207675 C58.69868849 131.72077217 58.70094768 119.69953583 58.71843529 107.67824173 C58.73313782 97.44436702 58.73381823 87.21060859 58.71636438 76.9767362 C58.70783584 71.75449342 58.70575006 66.53245853 58.72101593 61.31022644 C58.7348178 56.52965154 58.73015788 51.74946354 58.71077669 46.96891128 C58.70700252 45.23948577 58.70997932 43.51002961 58.72038835 41.78063132 C58.94505581 28.10579772 58.94505581 28.10579772 51.95381927 16.69865417 C44.84239197 12.33482378 38.86788034 11.59226 30.70381927 11.82365417 C29.78600677 11.83718933 28.86819427 11.85072449 27.92256927 11.8646698 C25.68235124 11.89967321 23.44341333 11.94876548 21.20381927 12.01115417 C20.72311506 13.44987761 20.24270253 14.8886985 19.76241302 16.32756042 C19.49485199 17.12879333 19.22729095 17.93002625 18.95162201 18.75553894 C18.37892092 20.4829909 17.81964539 22.214899 17.26631927 23.94865417 C15.92437333 26.55360807 14.89024705 26.9304157 12.20381927 28.01115417 C10.10418129 28.27121639 10.10418129 28.27121639 7.81493378 28.28530884 C6.94303406 28.29528397 6.07113434 28.30525909 5.17281342 28.3155365 C3.74980927 28.31653351 3.74980927 28.31653351 2.29805756 28.31755066 C1.29273987 28.32587418 0.28742218 28.33419769 -0.74835968 28.34277344 C-4.07423517 28.36688409 -7.39991459 28.37564667 -10.72586823 28.38224792 C-13.03748382 28.391213 -15.34909881 28.40033482 -17.6607132 28.40960693 C-22.50780396 28.42610208 -27.35482561 28.4337981 -32.20194244 28.43669128 C-38.41187026 28.44207744 -44.62114832 28.47976566 -50.83089256 28.52543545 C-55.60586672 28.55518122 -60.38068389 28.5624143 -65.15574265 28.56341743 C-67.44508721 28.56762415 -69.73443205 28.58007641 -72.02368546 28.60093498 C-75.22681956 28.6277984 -78.42844061 28.62303824 -81.63162994 28.61051941 C-82.57625092 28.6253537 -83.52087189 28.64018799 -84.49411774 28.6554718 C-88.85723288 28.60692709 -91.86502921 28.42871456 -95.35382843 25.65460205 C-98.00273009 22.78759819 -98.85160847 20.97779292 -99.67118073 17.19865417 C-99.8954776 16.22283386 -100.11977448 15.24701355 -100.35086823 14.24162292 C-100.49782135 13.50556824 -100.64477448 12.76951355 -100.79618073 12.01115417 C-105.04620038 11.9113434 -109.29557668 11.83924906 -113.54642487 11.79142761 C-114.98860324 11.77146667 -116.43070232 11.74428754 -117.87259674 11.70939636 C-127.80521571 11.47528264 -135.50945938 11.98864881 -143.67118073 18.19865417 Z M-26.79618073 16.01115417 C-26.79618073 17.33115417 -26.79618073 18.65115417 -26.79618073 20.01115417 C-25.80618073 19.68115417 -24.81618073 19.35115417 -23.79618073 19.01115417 C-24.12618073 18.02115417 -24.45618073 17.03115417 -24.79618073 16.01115417 C-25.45618073 16.01115417 -26.11618073 16.01115417 -26.79618073 16.01115417 Z M-56.79618073 17.01115417 C-56.79618073 17.67115417 -56.79618073 18.33115417 -56.79618073 19.01115417 C-49.53618073 19.01115417 -42.27618073 19.01115417 -34.79618073 19.01115417 C-34.46618073 18.35115417 -34.13618073 17.69115417 -33.79618073 17.01115417 C-41.38618073 17.01115417 -48.97618073 17.01115417 -56.79618073 17.01115417 Z " fill="#212121" transform="translate(294.79618072509766,6.9888458251953125)"/>
<path d="M0 0 C2.25 0 2.25 0 5 1 C12.93758876 12.79298901 11.31823753 29.08447316 11.37890625 42.703125 C11.39511026 44.6775594 11.41229322 46.65198598 11.43040466 48.62640381 C11.47574185 53.78135581 11.51074475 58.93631859 11.54260254 64.09136963 C11.59483715 72.38337394 11.65947456 80.67526506 11.73081779 88.96712494 C11.75367732 91.86163784 11.7699183 94.75613593 11.78553772 97.6506958 C11.79893321 99.40808283 11.81254702 101.16546821 11.82641602 102.92285156 C11.82902939 103.73104843 11.83164276 104.5392453 11.83433533 105.37193298 C11.53103373 108.98439956 11.53103373 108.98439956 13 112 C13.1009003 114.49756804 13.13971766 116.96687642 13.1328125 119.46484375 C13.13424759 120.5876046 13.13424759 120.5876046 13.13571167 121.73304749 C13.13639346 123.31934696 13.13453922 124.90564921 13.13037109 126.49194336 C13.12503024 128.92372909 13.1303122 131.35532949 13.13671875 133.78710938 C13.13605782 135.32552124 13.13477635 136.86393299 13.1328125 138.40234375 C13.13483673 139.13259262 13.13686096 139.86284149 13.13894653 140.61521912 C13.11495668 145.77008664 13.11495668 145.77008664 12 148 C11.88067203 149.57312768 11.82279395 151.15108873 11.79467773 152.72848511 C11.76476746 154.24138437 11.76476746 154.24138437 11.73425293 155.78484726 C11.7175354 156.90627247 11.70081787 158.02769768 11.68359375 159.18310547 C11.66276733 160.37561039 11.64194092 161.56811531 11.6204834 162.79675674 C11.56471154 166.14723457 11.5143023 169.49769656 11.46757126 172.84830713 C11.43727152 175.00847645 11.40539908 177.16861847 11.37332153 179.32876205 C10.97465078 206.63797726 10.92037915 233.94609713 10.9375 261.2578125 C10.93846302 262.79864455 10.93846302 262.79864455 10.9394455 264.37060452 C10.95037115 280.28874976 10.97438612 296.20687281 11 312.125 C11.02234381 326.08244499 11.04277374 340.03988247 11.05341816 353.99734199 C11.0574882 359.01333668 11.06357148 364.02930852 11.07516479 369.0452919 C11.10390904 381.69734051 11.08900318 394.34820418 11 407 C10.99416649 407.91982005 10.98833298 408.8396401 10.98232269 409.78733349 C10.9444379 415.3525028 10.88200673 420.91656286 10.78719902 426.4810617 C10.76023011 428.20772416 10.73952643 429.93449824 10.72572517 431.66131616 C10.64629197 440.73447497 10.41397377 448.81509011 6 457 C5.505 457.969375 5.01 458.93875 4.5 459.9375 C2.80269518 462.27129413 1.5787693 463.67377579 -1 465 C-4.25 464.6875 -4.25 464.6875 -7 464 C-6.67 462.35 -6.34 460.7 -6 459 C-6.66 459 -7.32 459 -8 459 C-6.98743448 455.54040115 -5.88888404 452.82411081 -3.95281154 449.75943661 C-1.74610966 445.94471819 -1.50169705 442.84766788 -1.50501537 438.41151428 C-1.5001004 437.67615712 -1.49518543 436.94079995 -1.49012151 436.18315923 C-1.47854735 433.72338966 -1.4954473 431.26465878 -1.51225281 428.80493164 C-1.50979181 427.02196218 -1.50557611 425.23899442 -1.49975806 423.45603275 C-1.48887396 418.5597581 -1.5029394 413.66382389 -1.52107847 408.76758242 C-1.5362919 403.48598999 -1.52842095 398.20442594 -1.52339172 392.92282104 C-1.51716359 382.57742936 -1.53216166 372.2321713 -1.55411734 361.8868053 C-1.57879722 349.84220283 -1.58172169 337.79762488 -1.58352111 325.75300086 C-1.58739854 304.26401566 -1.60987248 282.77509069 -1.64331055 261.28613281 C-1.67573948 240.42870838 -1.69698919 219.57131573 -1.70483398 198.71386719 C-1.70531948 197.42928198 -1.70580497 196.14469678 -1.70630517 194.82118475 C-1.70823384 189.65789162 -1.71014597 184.49459848 -1.71202127 179.33130533 C-1.71955354 159.4625225 -1.73518151 139.59374491 -1.75251788 119.72496849 C-1.75775417 113.72084741 -1.76268722 107.71672643 -1.7668798 101.71260452 C-1.77580101 89.08591595 -1.78758498 76.45924262 -1.80844583 63.83256745 C-1.81704149 58.61051318 -1.82412852 53.38846941 -1.82696152 48.16640854 C-1.82963023 43.38728182 -1.83692442 38.60818546 -1.84795199 33.82907093 C-1.85115526 32.09902134 -1.85269089 30.36896771 -1.8524017 28.63891518 C-1.85227623 26.28873701 -1.85826131 23.9386501 -1.86577892 21.58848572 C-1.86756749 20.28262481 -1.86935606 18.9767639 -1.87119883 17.63133144 C-1.99920155 14.02251097 -2.47855735 10.56944657 -3 7 C-2.5625 4.5625 -2.5625 4.5625 -2 3 C-1.34 3 -0.68 3 0 3 C0 2.01 0 1.02 0 0 Z " fill="#2A2A2A" transform="translate(354,20)"/>
<path d="M0 0 C5.4923386 8.2385079 5.15691386 17.69572266 5.11352539 27.30517578 C5.11367142 28.17470383 5.11381744 29.04423187 5.1139679 29.94010925 C5.11327882 32.77520361 5.10553418 35.61022982 5.09765625 38.4453125 C5.09578849 40.42642175 5.09436628 42.40753147 5.09336853 44.38864136 C5.08957153 49.57366232 5.07976564 54.75865476 5.06866455 59.94366455 C5.05838952 65.24629328 5.05385792 70.54892666 5.04882812 75.8515625 C5.03814056 86.23438745 5.02109841 96.61719134 5 107 C4.34 107 3.68 107 3 107 C2.99413376 105.77891037 2.98826752 104.55782074 2.98222351 103.29972839 C2.9250774 91.80722283 2.85235849 80.31490796 2.76428509 68.82259655 C2.71950608 62.91389001 2.6802666 57.00525363 2.65356445 51.09643555 C2.6276066 45.39696822 2.5872577 39.69776979 2.53681374 33.9984684 C2.52009404 31.82114309 2.50861166 29.64377121 2.50238609 27.46639061 C2.49280044 24.42286175 2.46480768 21.38002884 2.43237305 18.33666992 C2.43380814 17.43108337 2.43524323 16.52549683 2.4367218 15.59246826 C2.42418365 14.76375717 2.41164551 13.93504608 2.39872742 13.08122253 C2.39411845 12.36130221 2.38950949 11.64138189 2.38476086 10.89964581 C1.89382917 8.47581216 0.72238632 7.70888939 -1 6 C-0.6875 2.8125 -0.6875 2.8125 0 0 Z " fill="#D0D0D0" transform="translate(360,24)"/>
<path d="M0 0 C8.25 0 16.5 0 25 0 C25 1.32 25 2.64 25 4 C16.75 4 8.5 4 0 4 C0 2.68 0 1.36 0 0 Z M1 1 C1 1.66 1 2.32 1 3 C8.26 3 15.52 3 23 3 C23.33 2.34 23.66 1.68 24 1 C16.41 1 8.82 1 1 1 Z " fill="#999999" transform="translate(237,23)"/>
<path d="M0 0 C2.9159092 4.3738638 4.25995655 7.81354129 4.1953125 13.08203125 C4.18886719 14.01337891 4.18242187 14.94472656 4.17578125 15.90429688 C4.15902344 16.86400391 4.14226562 17.82371094 4.125 18.8125 C4.11597656 19.79154297 4.10695313 20.77058594 4.09765625 21.77929688 C4.07417182 24.18645061 4.0413284 26.59309743 4 29 C3.67 29 3.34 29 3 29 C2.97812622 28.11477661 2.97812622 28.11477661 2.95581055 27.21166992 C2.88131156 24.53628771 2.78466005 21.86215108 2.6875 19.1875 C2.66494141 18.25873047 2.64238281 17.32996094 2.61914062 16.37304688 C2.58369141 15.48037109 2.54824219 14.58769531 2.51171875 13.66796875 C2.48553467 12.84578857 2.45935059 12.0236084 2.43237305 11.17651367 C1.90923646 8.54310731 0.88132009 7.82804825 -1 6 C-0.6875 2.8125 -0.6875 2.8125 0 0 Z " fill="#8D8D8D" transform="translate(360,24)"/>
<path d="M0 0 C0.66 0.33 1.32 0.66 2 1 C-1.06093224 4.93548431 -3.49115974 7.68116787 -8 10 C-6.34908222 5.70761377 -3.26245434 3.1206085 0 0 Z " fill="#707070" transform="translate(147,14)"/>
<path d="M0 0 C0.99 0.33 1.98 0.66 3 1 C2.625 3.9375 2.625 3.9375 2 7 C1.01 7.495 1.01 7.495 0 8 C-0.66 5.69 -1.32 3.38 -2 1 C-1.34 0.67 -0.68 0.34 0 0 Z " fill="#464646" transform="translate(359,469)"/>
</svg>
