<?xml version="1.0" encoding="UTF-8"?>
<!DOCTYPE svg PUBLIC "-//W3C//DTD SVG 1.1//EN" "http://www.w3.org/Graphics/SVG/1.1/DTD/svg11.dtd">
<svg xmlns="http://www.w3.org/2000/svg" version="1.1" width="360px" height="360px" style="shape-rendering:geometricPrecision; text-rendering:geometricPrecision; image-rendering:optimizeQuality; fill-rule:evenodd; clip-rule:evenodd" xmlns:xlink="http://www.w3.org/1999/xlink">
<g><path style="opacity:0.981" fill="#050505" d="M 307.5,76.5 C 307.5,133.833 307.5,191.167 307.5,248.5C 268.833,248.5 230.167,248.5 191.5,248.5C 143.67,247.501 95.6696,247.168 47.5,247.5C 47.5,244.833 47.5,242.167 47.5,239.5C 47.3333,184.832 47.5,130.166 48,75.5C 48.7172,74.9558 49.2172,74.2891 49.5,73.5C 51.4672,73.7394 53.3005,73.4061 55,72.5C 138.763,73.3319 222.597,73.8319 306.5,74C 307.252,74.6708 307.586,75.5041 307.5,76.5 Z M 68.5,81.5 C 143.472,82.1056 219.472,82.1056 296.5,81.5C 297.172,82.2674 298.005,82.9341 299,83.5C 299.169,95.6737 299.669,107.674 300.5,119.5C 300.306,157.17 300.306,194.837 300.5,232.5C 298.694,233.024 297.028,233.691 295.5,234.5C 217.167,234.5 138.833,234.5 60.5,234.5C 59.0813,233.549 57.4147,233.216 55.5,233.5C 55.8274,223.319 55.494,213.319 54.5,203.5C 54.5,199.5 54.5,195.5 54.5,191.5C 55.4984,155.337 55.8318,119.004 55.5,82.5C 60.0323,82.8182 64.3656,82.4849 68.5,81.5 Z"/></g>
<g><path style="opacity:0.984" fill="#878787" d="M 175.5,75.5 C 177.167,75.5 178.833,75.5 180.5,75.5C 180.65,79.1612 179.15,80.1612 176,78.5C 175.517,77.552 175.351,76.552 175.5,75.5 Z"/></g>
<g><path style="opacity:0.542" fill="#393939" d="M 54.5,81.5 C 136.5,80.1667 218.5,80.1667 300.5,81.5C 299.167,81.5 297.833,81.5 296.5,81.5C 219.472,82.1056 143.472,82.1056 68.5,81.5C 63.8333,81.5 59.1667,81.5 54.5,81.5 Z"/></g>
<g><path style="opacity:0.005" fill="#fefffe" d="M 54.5,81.5 C 59.1667,81.5 63.8333,81.5 68.5,81.5C 64.3656,82.4849 60.0323,82.8182 55.5,82.5C 55.8318,119.004 55.4984,155.337 54.5,191.5C 54.5,154.833 54.5,118.167 54.5,81.5 Z"/></g>
<g><path style="opacity:0.216" fill="#949494" d="M 49.5,73.5 C 49.2172,74.2891 48.7172,74.9558 48,75.5C 47.5,130.166 47.3333,184.832 47.5,239.5C 47.1667,239.5 46.8333,239.5 46.5,239.5C 46.3333,184.499 46.5,129.499 47,74.5C 47.6708,73.7476 48.5041,73.4142 49.5,73.5 Z"/></g>
<g><path style="opacity:0.049" fill="#f1f1f1" d="M 296.5,81.5 C 297.833,81.5 299.167,81.5 300.5,81.5C 300.5,94.1667 300.5,106.833 300.5,119.5C 299.669,107.674 299.169,95.6737 299,83.5C 298.005,82.9341 297.172,82.2674 296.5,81.5 Z"/></g>
<g><path style="opacity:0.004" fill="#fefffe" d="M 54.5,203.5 C 55.494,213.319 55.8274,223.319 55.5,233.5C 57.4147,233.216 59.0813,233.549 60.5,234.5C 58.5,234.5 56.5,234.5 54.5,234.5C 54.5,224.167 54.5,213.833 54.5,203.5 Z"/></g>
<g><path style="opacity:0.01" fill="#fefffe" d="M 300.5,232.5 C 299.448,234.256 297.781,234.923 295.5,234.5C 297.028,233.691 298.694,233.024 300.5,232.5 Z"/></g>
<g><path style="opacity:0.036" fill="#fbfbfb" d="M 46.5,239.5 C 46.8333,239.5 47.1667,239.5 47.5,239.5C 47.5,242.167 47.5,244.833 47.5,247.5C 46.8333,247.5 46.1667,247.5 45.5,247.5C 46.388,244.946 46.7214,242.279 46.5,239.5 Z"/></g>
<g><path style="opacity:1" fill="#8d8d8d" d="M 307.5,76.5 C 308.333,133.665 308.833,190.999 309,248.5C 317.987,255.324 326.487,262.658 334.5,270.5C 331.421,268.98 328.088,268.147 324.5,268C 322.833,267 321.5,265.667 320.5,264C 321.706,262.982 321.373,262.482 319.5,262.5C 317.075,263.9 317.408,265.066 320.5,266C 318.981,267.218 317.814,268.718 317,270.5C 305.058,269.177 292.891,268.51 280.5,268.5C 268.329,268.5 256.329,268.833 244.5,269.5C 243.5,269.167 242.833,268.5 242.5,267.5C 267.169,267.667 291.836,267.5 316.5,267C 310.5,262.333 304.5,257.667 298.5,253C 217.501,252.5 136.501,252.333 55.5,252.5C 123.339,251.857 191.339,251.024 259.5,250C 202.167,249.667 144.833,249.333 87.5,249C 122.165,248.5 156.832,248.333 191.5,248.5C 230.167,248.5 268.833,248.5 307.5,248.5C 307.5,191.167 307.5,133.833 307.5,76.5 Z"/></g>
<g><path style="opacity:1" fill="#101010" d="M 55.5,252.5 C 136.501,252.333 217.501,252.5 298.5,253C 304.5,257.667 310.5,262.333 316.5,267C 291.836,267.5 267.169,267.667 242.5,267.5C 197.833,267.5 153.167,267.5 108.5,267.5C 85.8235,267.833 63.1569,267.5 40.5,266.5C 46.1455,262.513 51.1455,257.846 55.5,252.5 Z"/></g>
<g><path style="opacity:1" fill="#767676" d="M 45.5,247.5 C 46.1667,247.5 46.8333,247.5 47.5,247.5C 95.6696,247.168 143.67,247.501 191.5,248.5C 156.832,248.333 122.165,248.5 87.5,249C 144.833,249.333 202.167,249.667 259.5,250C 191.339,251.024 123.339,251.857 55.5,252.5C 51.1455,257.846 46.1455,262.513 40.5,266.5C 63.1569,267.5 85.8235,267.833 108.5,267.5C 105.887,272.391 103.554,277.391 101.5,282.5C 152.173,282.923 202.84,282.923 253.5,282.5C 250.832,277.85 247.832,273.517 244.5,269.5C 256.329,268.833 268.329,268.5 280.5,268.5C 292.891,268.51 305.058,269.177 317,270.5C 317.814,268.718 318.981,267.218 320.5,266C 317.408,265.066 317.075,263.9 319.5,262.5C 321.373,262.482 321.706,262.982 320.5,264C 321.5,265.667 322.833,267 324.5,268C 328.088,268.147 331.421,268.98 334.5,270.5C 340.463,275.627 346.296,280.96 352,286.5C 352.796,289.039 352.629,291.372 351.5,293.5C 294.671,292.167 237.504,291.5 180,291.5C 122.666,291.5 65.499,291.833 8.5,292.5C 6.61501,290.205 6.11501,287.538 7,284.5C 17.3851,273.571 27.8851,262.737 38.5,252C 40.7343,250.25 43.0676,248.75 45.5,247.5 Z"/></g>
<g><path style="opacity:1" fill="#919191" d="M 108.5,267.5 C 153.167,267.5 197.833,267.5 242.5,267.5C 242.833,268.5 243.5,269.167 244.5,269.5C 247.832,273.517 250.832,277.85 253.5,282.5C 202.84,282.923 152.173,282.923 101.5,282.5C 103.554,277.391 105.887,272.391 108.5,267.5 Z"/></g>
<g><path style="opacity:1" fill="#919191" d="M 154.5,284.5 C 169.182,284.167 183.848,284.501 198.5,285.5C 198.977,286.478 199.643,287.311 200.5,288C 184.5,288.667 168.5,288.667 152.5,288C 153.305,286.887 153.972,285.721 154.5,284.5 Z"/></g>
<g><path style="opacity:0.993" fill="#6f6f6f" d="M 351.5,293.5 C 324.833,293.5 298.167,293.5 271.5,293.5C 245.328,293.169 219.328,293.502 193.5,294.5C 132.729,295.211 71.7289,295.377 10.5,295C 9.61947,294.292 8.9528,293.458 8.5,292.5C 65.499,291.833 122.666,291.5 180,291.5C 237.504,291.5 294.671,292.167 351.5,293.5 Z"/></g>
<g><path style="opacity:0.232" fill="#8c8c8c" d="M 193.5,294.5 C 219.328,293.502 245.328,293.169 271.5,293.5C 271.5,293.833 271.5,294.167 271.5,294.5C 244.776,295.162 218.776,295.162 193.5,294.5 Z"/></g>
<g><path style="opacity:0.125" fill="#b9b9b9" d="M 271.5,293.5 C 298.167,293.5 324.833,293.5 351.5,293.5C 330.628,294.177 309.628,294.844 288.5,295.5C 282.673,295.294 277.007,294.96 271.5,294.5C 271.5,294.167 271.5,293.833 271.5,293.5 Z"/></g>
</svg>
